M48
; DRILL file {KiCad 9.0.2} date 2025-07-04T19:58:11+0530
; FORMAT={-:-/ absolute / metric / decimal}
; #@! TF.CreationDate,2025-07-04T19:58:11+05:30
; #@! TF.GenerationSoftware,Kicad,Pcbnew,9.0.2
; #@! TF.FileFunction,Plated,1,2,PTH
FMAT,2
METRIC
; #@! TA.AperFunction,Plated,PTH,ViaDrill
T1C0.300
; #@! TA.AperFunction,Plated,PTH,ComponentDrill
T2C0.700
; #@! TA.AperFunction,Plated,PTH,ComponentDrill
T3C0.889
; #@! TA.AperFunction,Plated,PTH,ComponentDrill
T4C1.210
; #@! TA.AperFunction,Plated,PTH,ComponentDrill
T5C1.500
%
G90
G05
T1
X115.151Y-115.62
X118.323Y-124.135
T2
X73.905Y-67.0
X75.805Y-67.0
X81.505Y-67.0
X83.405Y-67.0
X89.062Y-67.343
X90.962Y-67.343
X96.662Y-67.543
X98.562Y-67.543
T3
X106.98Y-64.049
X106.98Y-66.588
X106.98Y-69.129
X106.98Y-71.668
X106.98Y-74.209
X106.98Y-76.748
X106.98Y-79.288
X122.22Y-64.049
X122.22Y-66.588
X122.22Y-69.129
X122.22Y-71.668
X122.22Y-74.209
X122.22Y-76.748
X122.22Y-79.288
T4
X83.731Y-89.739
X86.271Y-89.739
X96.601Y-81.339
X96.601Y-98.839
X99.141Y-81.339
X99.141Y-98.839
X110.601Y-90.039
X113.141Y-90.039
T5
X74.843Y-129.582
X81.193Y-127.042
X93.943Y-138.802
X94.003Y-119.882
X100.293Y-136.262
X100.353Y-117.342
X113.153Y-129.342
X119.503Y-126.802
M30
