%TF.GenerationSoftware,KiCad,Pcbnew,9.0.2*%
%TF.CreationDate,2025-07-04T19:57:48+05:30*%
%TF.ProjectId,clackade,636c6163-6b61-4646-952e-6b696361645f,rev?*%
%TF.SameCoordinates,Original*%
%TF.FileFunction,Legend,Bot*%
%TF.FilePolarity,Positive*%
%FSLAX46Y46*%
G04 Gerber Fmt 4.6, Leading zero omitted, Abs format (unit mm)*
G04 Created by KiCad (PCBNEW 9.0.2) date 2025-07-04 19:57:48*
%MOMM*%
%LPD*%
G01*
G04 APERTURE LIST*
%ADD10C,0.101600*%
%ADD11C,0.000000*%
%ADD12C,0.127000*%
%ADD13C,0.100000*%
%ADD14C,0.504000*%
G04 APERTURE END LIST*
D10*
X117965502Y-67256640D02*
X117965502Y-67770687D01*
X117965502Y-67770687D02*
X117935264Y-67831163D01*
X117935264Y-67831163D02*
X117905026Y-67861402D01*
X117905026Y-67861402D02*
X117844550Y-67891640D01*
X117844550Y-67891640D02*
X117723597Y-67891640D01*
X117723597Y-67891640D02*
X117663121Y-67861402D01*
X117663121Y-67861402D02*
X117632883Y-67831163D01*
X117632883Y-67831163D02*
X117602645Y-67770687D01*
X117602645Y-67770687D02*
X117602645Y-67256640D01*
X116967645Y-67891640D02*
X117330502Y-67891640D01*
X117149074Y-67891640D02*
X117149074Y-67256640D01*
X117149074Y-67256640D02*
X117209550Y-67347354D01*
X117209550Y-67347354D02*
X117270026Y-67407830D01*
X117270026Y-67407830D02*
X117330502Y-67438068D01*
D11*
%TO.C,G\u002A\u002A\u002A*%
G36*
X114286005Y-107199894D02*
G01*
X114604154Y-107234226D01*
X114812754Y-107320322D01*
X114934863Y-107481678D01*
X114993538Y-107741786D01*
X115011834Y-108124142D01*
X115012809Y-108652239D01*
X115012875Y-108828976D01*
X115007226Y-109299198D01*
X114974391Y-109632948D01*
X114890686Y-109853602D01*
X114732426Y-109984534D01*
X114475927Y-110049116D01*
X114097505Y-110070725D01*
X113573475Y-110072734D01*
X113319383Y-110072189D01*
X112935848Y-110066388D01*
X112673977Y-110050807D01*
X112502283Y-110021248D01*
X112389279Y-109973512D01*
X112303475Y-109903400D01*
X112261486Y-109857184D01*
X112204666Y-109760784D01*
X112167637Y-109619980D01*
X112146285Y-109403548D01*
X112136492Y-109080262D01*
X112134216Y-108633400D01*
X113234809Y-108633400D01*
X113234809Y-108972067D01*
X113573475Y-108972067D01*
X113912142Y-108972067D01*
X113912142Y-108633400D01*
X113912142Y-108294734D01*
X113573475Y-108294734D01*
X113234809Y-108294734D01*
X113234809Y-108633400D01*
X112134216Y-108633400D01*
X112134142Y-108618901D01*
X112133786Y-108353287D01*
X112139258Y-107906641D01*
X112172603Y-107592314D01*
X112257373Y-107387124D01*
X112417123Y-107267887D01*
X112675407Y-107211421D01*
X113055780Y-107194542D01*
X113581797Y-107194067D01*
X113835252Y-107193832D01*
X114286005Y-107199894D01*
G37*
G36*
X114229014Y-112533577D02*
G01*
X114567191Y-112565982D01*
X114790771Y-112648592D01*
X114923439Y-112804781D01*
X114988878Y-113057922D01*
X115010774Y-113431391D01*
X115012809Y-113948562D01*
X115013018Y-114202186D01*
X115007102Y-114662752D01*
X114973744Y-114987990D01*
X114890122Y-115201401D01*
X114733411Y-115326482D01*
X114480788Y-115386732D01*
X114109428Y-115405650D01*
X113596508Y-115406734D01*
X113573475Y-115406724D01*
X113551539Y-115406715D01*
X113080604Y-115402801D01*
X112747728Y-115389925D01*
X112524064Y-115364995D01*
X112380762Y-115324922D01*
X112288976Y-115266612D01*
X112260016Y-115237603D01*
X112205002Y-115148967D01*
X112168545Y-115010385D01*
X112147007Y-114792022D01*
X112136752Y-114464042D01*
X112134142Y-113996612D01*
X112134129Y-113967400D01*
X113234809Y-113967400D01*
X113234809Y-114306067D01*
X113573475Y-114306067D01*
X113912142Y-114306067D01*
X113912142Y-113967400D01*
X113912142Y-113628734D01*
X113573475Y-113628734D01*
X113234809Y-113628734D01*
X113234809Y-113967400D01*
X112134129Y-113967400D01*
X112134039Y-113758583D01*
X112140574Y-113291493D01*
X112175189Y-112960567D01*
X112260856Y-112742366D01*
X112420547Y-112613454D01*
X112677232Y-112550392D01*
X113053885Y-112529742D01*
X113573475Y-112528067D01*
X113752556Y-112528002D01*
X114229014Y-112533577D01*
G37*
G36*
X110545652Y-101784937D02*
G01*
X111384544Y-101791362D01*
X111422766Y-101791735D01*
X112213433Y-101798694D01*
X112851781Y-101806609D01*
X113354038Y-101821348D01*
X113736432Y-101848780D01*
X114015191Y-101894774D01*
X114206541Y-101965199D01*
X114326711Y-102065923D01*
X114391929Y-102202816D01*
X114418421Y-102381745D01*
X114422417Y-102608580D01*
X114420142Y-102889189D01*
X114420142Y-103638067D01*
X115154309Y-103638067D01*
X115513983Y-103643077D01*
X115834113Y-103678205D01*
X116034906Y-103770883D01*
X116144051Y-103948409D01*
X116189234Y-104238079D01*
X116198142Y-104667189D01*
X116198142Y-105416067D01*
X116932309Y-105416067D01*
X117291983Y-105421077D01*
X117612113Y-105456205D01*
X117812906Y-105548883D01*
X117922051Y-105726409D01*
X117967234Y-106016079D01*
X117976142Y-106445189D01*
X117976142Y-107194067D01*
X118611142Y-107194067D01*
X119246142Y-107194067D01*
X119246142Y-106855400D01*
X120346809Y-106855400D01*
X120346809Y-107194067D01*
X120685475Y-107194067D01*
X121024142Y-107194067D01*
X121024142Y-106855400D01*
X121024142Y-106516734D01*
X120685475Y-106516734D01*
X120346809Y-106516734D01*
X120346809Y-106855400D01*
X119246142Y-106855400D01*
X119246142Y-106493239D01*
X119246153Y-106433952D01*
X119251974Y-106057291D01*
X119284798Y-105787327D01*
X119368348Y-105606292D01*
X119526344Y-105496416D01*
X119782508Y-105439932D01*
X120160563Y-105419072D01*
X120684229Y-105416067D01*
X120694620Y-105416068D01*
X121182522Y-105419629D01*
X121528939Y-105431941D01*
X121761119Y-105455778D01*
X121906311Y-105493911D01*
X121991761Y-105549115D01*
X121992938Y-105550301D01*
X122047805Y-105636597D01*
X122085653Y-105783133D01*
X122109255Y-106017154D01*
X122121382Y-106365910D01*
X122124809Y-106856647D01*
X122124801Y-106935799D01*
X122120441Y-107438663D01*
X122095854Y-107799080D01*
X122033273Y-108040773D01*
X121914929Y-108187464D01*
X121723054Y-108262873D01*
X121439879Y-108290722D01*
X121047637Y-108294734D01*
X120685475Y-108294734D01*
X120346809Y-108294734D01*
X120346809Y-109051933D01*
X120343185Y-109381667D01*
X120315807Y-109667944D01*
X120240398Y-109861743D01*
X120092700Y-109981094D01*
X119848457Y-110044024D01*
X119483410Y-110068561D01*
X118973303Y-110072734D01*
X117976142Y-110072734D01*
X117976142Y-111300400D01*
X117976142Y-112528067D01*
X118973303Y-112528067D01*
X119416967Y-112530761D01*
X119802156Y-112551108D01*
X120062917Y-112607152D01*
X120223505Y-112716923D01*
X120308179Y-112898447D01*
X120341194Y-113169752D01*
X120346809Y-113548868D01*
X120346809Y-114306067D01*
X121047637Y-114306067D01*
X121106924Y-114306078D01*
X121483585Y-114311899D01*
X121753549Y-114344723D01*
X121934584Y-114428273D01*
X122044460Y-114586269D01*
X122100944Y-114842433D01*
X122121804Y-115220488D01*
X122124809Y-115744154D01*
X122124808Y-115754545D01*
X122121247Y-116242447D01*
X122108935Y-116588864D01*
X122085098Y-116821044D01*
X122046965Y-116966236D01*
X121991761Y-117051686D01*
X121990575Y-117052863D01*
X121904279Y-117107730D01*
X121757743Y-117145578D01*
X121523722Y-117169180D01*
X121174966Y-117181307D01*
X120685475Y-117184725D01*
X120684229Y-117184734D01*
X120605077Y-117184726D01*
X120102213Y-117180366D01*
X119741796Y-117155779D01*
X119500103Y-117093198D01*
X119353412Y-116974854D01*
X119278003Y-116782979D01*
X119250154Y-116499804D01*
X119246142Y-116107562D01*
X119246142Y-115745400D01*
X120346809Y-115745400D01*
X120346809Y-116084067D01*
X120685475Y-116084067D01*
X121024142Y-116084067D01*
X121024142Y-115745400D01*
X121024142Y-115406734D01*
X120685475Y-115406734D01*
X120346809Y-115406734D01*
X120346809Y-115745400D01*
X119246142Y-115745400D01*
X119246142Y-115406734D01*
X118611142Y-115406734D01*
X117976142Y-115406734D01*
X117976142Y-116140900D01*
X117971132Y-116500575D01*
X117936004Y-116820705D01*
X117843326Y-117021498D01*
X117665800Y-117130643D01*
X117376131Y-117175826D01*
X116947020Y-117184734D01*
X116198142Y-117184734D01*
X116198142Y-117918900D01*
X116193132Y-118278575D01*
X116158004Y-118598705D01*
X116065326Y-118799498D01*
X115887800Y-118908643D01*
X115598131Y-118953826D01*
X115169020Y-118962734D01*
X114420142Y-118962734D01*
X114420142Y-119711612D01*
X114420151Y-119725058D01*
X114422491Y-120003199D01*
X114417853Y-120227821D01*
X114390009Y-120404793D01*
X114322732Y-120539985D01*
X114199794Y-120639265D01*
X114004968Y-120708501D01*
X113722026Y-120753563D01*
X113334740Y-120780319D01*
X113319475Y-120780749D01*
X112826883Y-120794637D01*
X112182227Y-120802388D01*
X111384544Y-120809439D01*
X111048535Y-120812511D01*
X110269497Y-120816722D01*
X109638013Y-120813955D01*
X109138323Y-120802580D01*
X108754669Y-120780970D01*
X108471292Y-120747497D01*
X108272433Y-120700533D01*
X108142332Y-120638450D01*
X108065232Y-120559620D01*
X108025372Y-120462415D01*
X108023429Y-120453508D01*
X108008298Y-120284473D01*
X107999468Y-119989331D01*
X107997608Y-119607089D01*
X108003383Y-119176755D01*
X108004575Y-119123394D01*
X108015790Y-118689947D01*
X108030382Y-118392890D01*
X108054199Y-118202370D01*
X108093088Y-118088534D01*
X108152898Y-118021530D01*
X108239475Y-117971503D01*
X108285755Y-117953358D01*
X108497647Y-117913413D01*
X108846170Y-117885534D01*
X109342123Y-117869057D01*
X109996309Y-117863315D01*
X111541475Y-117862067D01*
X111541475Y-117523400D01*
X111541475Y-117184734D01*
X109918309Y-117184734D01*
X109539725Y-117184907D01*
X109008697Y-117181497D01*
X108614719Y-117164045D01*
X108337373Y-117121678D01*
X108156240Y-117043524D01*
X108050903Y-116918712D01*
X108000942Y-116736371D01*
X107985939Y-116485628D01*
X107985475Y-116155612D01*
X107985475Y-115406734D01*
X107646809Y-115406141D01*
X107244642Y-115405437D01*
X107215432Y-115405373D01*
X106821682Y-115398494D01*
X106559824Y-115372675D01*
X106394704Y-115316326D01*
X106291166Y-115217857D01*
X106214054Y-115065677D01*
X106203414Y-115030524D01*
X106175141Y-114821546D01*
X106155203Y-114487068D01*
X106145101Y-114060152D01*
X106146089Y-113671067D01*
X107308142Y-113671067D01*
X107308142Y-114306067D01*
X107646809Y-114306067D01*
X107985475Y-114306067D01*
X107985475Y-113671067D01*
X107985475Y-113036067D01*
X107646809Y-113036067D01*
X107308142Y-113036067D01*
X107308142Y-113671067D01*
X106146089Y-113671067D01*
X106146336Y-113573860D01*
X106154285Y-113043228D01*
X106173201Y-112616499D01*
X106222211Y-112316152D01*
X106321108Y-112120052D01*
X106489687Y-112006063D01*
X106747741Y-111952049D01*
X107115065Y-111935873D01*
X107611453Y-111935400D01*
X107737768Y-111935423D01*
X108156122Y-111937371D01*
X108443873Y-111946292D01*
X108632110Y-111967526D01*
X108751927Y-112006410D01*
X108834415Y-112068284D01*
X108910664Y-112158485D01*
X108987377Y-112274449D01*
X109038683Y-112415519D01*
X109068648Y-112616464D01*
X109082668Y-112913744D01*
X109086142Y-113343819D01*
X109086142Y-114306067D01*
X109424809Y-114306067D01*
X109763475Y-114306067D01*
X109763475Y-111300400D01*
X109763475Y-108294734D01*
X109424809Y-108294734D01*
X109086142Y-108294734D01*
X109086142Y-109256982D01*
X109082780Y-109681918D01*
X109068948Y-109980843D01*
X109039250Y-110182912D01*
X108988288Y-110324582D01*
X108910664Y-110442316D01*
X108890826Y-110467389D01*
X108815925Y-110550137D01*
X108727148Y-110605868D01*
X108593404Y-110639921D01*
X108383601Y-110657636D01*
X108066648Y-110664349D01*
X107646809Y-110665318D01*
X107611453Y-110665400D01*
X107319503Y-110665529D01*
X106882790Y-110657425D01*
X106573106Y-110618915D01*
X106367796Y-110526883D01*
X106244202Y-110358215D01*
X106179669Y-110089795D01*
X106151540Y-109698507D01*
X106137157Y-109161236D01*
X106135502Y-109092608D01*
X106132723Y-108929734D01*
X107308142Y-108929734D01*
X107308142Y-109564734D01*
X107646809Y-109564734D01*
X107985475Y-109564734D01*
X107985475Y-108929734D01*
X107985475Y-108294734D01*
X107646809Y-108294734D01*
X107308142Y-108294734D01*
X107308142Y-108929734D01*
X106132723Y-108929734D01*
X106125090Y-108482474D01*
X106134265Y-108019308D01*
X106174256Y-107682884D01*
X106256294Y-107452979D01*
X106391609Y-107309369D01*
X106591432Y-107231830D01*
X106866993Y-107200137D01*
X107229523Y-107194067D01*
X107985475Y-107194067D01*
X107985475Y-106459901D01*
X107985105Y-106259970D01*
X107990972Y-105971109D01*
X108022698Y-105756944D01*
X108100772Y-105606323D01*
X108245688Y-105508093D01*
X108477937Y-105451105D01*
X108818010Y-105424205D01*
X109286400Y-105416243D01*
X109903598Y-105416067D01*
X111541475Y-105416067D01*
X111541475Y-105077400D01*
X111541475Y-104738734D01*
X109996309Y-104737486D01*
X109732833Y-104736556D01*
X109138996Y-104726883D01*
X108699359Y-104706226D01*
X108403119Y-104673919D01*
X108239475Y-104629298D01*
X108229192Y-104624078D01*
X108145629Y-104573684D01*
X108088235Y-104503250D01*
X108051161Y-104382922D01*
X108028559Y-104182847D01*
X108014583Y-103873173D01*
X108003383Y-103424046D01*
X108002391Y-103377399D01*
X108001490Y-103299400D01*
X109086142Y-103299400D01*
X109086142Y-103638067D01*
X110732341Y-103638067D01*
X111216179Y-103637017D01*
X111717338Y-103640491D01*
X112085350Y-103663783D01*
X112340658Y-103722435D01*
X112503706Y-103831990D01*
X112594936Y-104007991D01*
X112634790Y-104265981D01*
X112643711Y-104621501D01*
X112642142Y-105090094D01*
X112642425Y-105432247D01*
X112633651Y-105803230D01*
X112596031Y-106078343D01*
X112509501Y-106271891D01*
X112354001Y-106398175D01*
X112109469Y-106471499D01*
X111755842Y-106506165D01*
X111273059Y-106516475D01*
X110641057Y-106516734D01*
X109086142Y-106516734D01*
X109086142Y-106855400D01*
X109086142Y-107194067D01*
X109805809Y-107194067D01*
X109827974Y-107194023D01*
X110067291Y-107189558D01*
X110266861Y-107187481D01*
X110430270Y-107201703D01*
X110561101Y-107246133D01*
X110662941Y-107334680D01*
X110739375Y-107481253D01*
X110793986Y-107699763D01*
X110830359Y-108004118D01*
X110852081Y-108408227D01*
X110862735Y-108926001D01*
X110865907Y-109571348D01*
X110865181Y-110358178D01*
X110864142Y-111300400D01*
X110864153Y-111386401D01*
X110865304Y-112314950D01*
X110865840Y-113089283D01*
X110862174Y-113723308D01*
X110850723Y-114230936D01*
X110827902Y-114626075D01*
X110790125Y-114922635D01*
X110733808Y-115134526D01*
X110655366Y-115275656D01*
X110551214Y-115359936D01*
X110417768Y-115401274D01*
X110251441Y-115413580D01*
X110048650Y-115410764D01*
X109805809Y-115406734D01*
X109086142Y-115406734D01*
X109086142Y-115745400D01*
X109086142Y-116084067D01*
X110641057Y-116084067D01*
X111120981Y-116083866D01*
X111641342Y-116090121D01*
X112027231Y-116116942D01*
X112298712Y-116178631D01*
X112475845Y-116289492D01*
X112578693Y-116463828D01*
X112627317Y-116715940D01*
X112641780Y-117060132D01*
X112642142Y-117510707D01*
X112643524Y-117878570D01*
X112638955Y-118259602D01*
X112608319Y-118539403D01*
X112531176Y-118733515D01*
X112387082Y-118857481D01*
X112155594Y-118926843D01*
X111816269Y-118957144D01*
X111348666Y-118963927D01*
X110732341Y-118962734D01*
X109086142Y-118962734D01*
X109086142Y-119301400D01*
X109086142Y-119640067D01*
X111202809Y-119640067D01*
X113319475Y-119640067D01*
X113320772Y-118941567D01*
X113321585Y-118841526D01*
X113333098Y-118519650D01*
X113355244Y-118273517D01*
X113384272Y-118149909D01*
X113421414Y-118102517D01*
X113632498Y-117965925D01*
X113972057Y-117887279D01*
X114456909Y-117862067D01*
X115097475Y-117862067D01*
X115097475Y-117145699D01*
X115101972Y-116855783D01*
X115139870Y-116507355D01*
X115239005Y-116282448D01*
X115426170Y-116154584D01*
X115728162Y-116097283D01*
X116171774Y-116084067D01*
X116875475Y-116084067D01*
X116875475Y-115379159D01*
X116875918Y-115243442D01*
X116885425Y-114933080D01*
X116914727Y-114733353D01*
X116973503Y-114600350D01*
X117071432Y-114490159D01*
X117100781Y-114463498D01*
X117202201Y-114392409D01*
X117333708Y-114346527D01*
X117530102Y-114320446D01*
X117826187Y-114308761D01*
X118256766Y-114306067D01*
X119246142Y-114306067D01*
X119246142Y-113967400D01*
X119246142Y-113628734D01*
X118230142Y-113628734D01*
X117943073Y-113630164D01*
X117604081Y-113628457D01*
X117345322Y-113605671D01*
X117156022Y-113543289D01*
X117025405Y-113422790D01*
X116942699Y-113225656D01*
X116897127Y-112933369D01*
X116877915Y-112527410D01*
X116874290Y-111989260D01*
X116875475Y-111300400D01*
X116874643Y-110807001D01*
X116875637Y-110224358D01*
X116888894Y-109779616D01*
X116925189Y-109454256D01*
X116995298Y-109229759D01*
X117109993Y-109087607D01*
X117280051Y-109009280D01*
X117516246Y-108976260D01*
X117829351Y-108970029D01*
X118230142Y-108972067D01*
X119246142Y-108972067D01*
X119246142Y-108633400D01*
X119246142Y-108294734D01*
X118244901Y-108294734D01*
X118000528Y-108294259D01*
X117645759Y-108288541D01*
X117408358Y-108271768D01*
X117254245Y-108238306D01*
X117149341Y-108182520D01*
X117059567Y-108098777D01*
X117050306Y-108088799D01*
X116959783Y-107964513D01*
X116906708Y-107806703D01*
X116881724Y-107570185D01*
X116875476Y-107209777D01*
X116875475Y-106516734D01*
X116171774Y-106516734D01*
X115878399Y-106512291D01*
X115525813Y-106474839D01*
X115298223Y-106376873D01*
X115168833Y-106191915D01*
X115110849Y-105893484D01*
X115097475Y-105455102D01*
X115097475Y-104738734D01*
X114456909Y-104738734D01*
X114310749Y-104736937D01*
X113866776Y-104697745D01*
X113563557Y-104603901D01*
X113384272Y-104450892D01*
X113375434Y-104430616D01*
X113348001Y-104266959D01*
X113328530Y-103994238D01*
X113320772Y-103659234D01*
X113319475Y-102960734D01*
X111202809Y-102960734D01*
X109086142Y-102960734D01*
X109086142Y-103299400D01*
X108001490Y-103299400D01*
X107997455Y-102950309D01*
X108000085Y-102575439D01*
X108009613Y-102291795D01*
X108025372Y-102138386D01*
X108037057Y-102099395D01*
X108089135Y-102009324D01*
X108184409Y-101937013D01*
X108338637Y-101880834D01*
X108567578Y-101839159D01*
X108886991Y-101810359D01*
X109312635Y-101792808D01*
X109860269Y-101784877D01*
X110545652Y-101784937D01*
G37*
D12*
%TO.C,U1*%
X105710000Y-80177500D02*
X105710000Y-63032500D01*
D13*
X107615000Y-61127500D02*
X121585000Y-61127500D01*
D12*
X107615000Y-61127500D02*
X121585000Y-61127500D01*
X110096000Y-60217500D02*
X110096000Y-61127500D01*
X118591272Y-59717500D02*
X110596000Y-59717500D01*
X119095000Y-61127500D02*
X119091272Y-60217228D01*
X121585000Y-82082500D02*
X107615000Y-82082500D01*
X123490000Y-80177500D02*
X123490000Y-63032500D01*
X105710000Y-63032500D02*
G75*
G02*
X107615000Y-61127500I1905000J0D01*
G01*
X107615000Y-82082500D02*
G75*
G02*
X105710000Y-80177500I0J1905000D01*
G01*
X110096000Y-60217500D02*
G75*
G02*
X110596000Y-59717500I500000J0D01*
G01*
X118591272Y-59717500D02*
G75*
G02*
X119091273Y-60217228I-18J-500019D01*
G01*
X121585000Y-61127500D02*
G75*
G02*
X123490000Y-63032500I-1J-1905001D01*
G01*
X123490000Y-80177500D02*
G75*
G02*
X121585000Y-82082500I-1905001J1D01*
G01*
D14*
X122659000Y-62248500D02*
G75*
G02*
X122155000Y-62248500I-252000J0D01*
G01*
X122155000Y-62248500D02*
G75*
G02*
X122659000Y-62248500I252000J0D01*
G01*
X123802000Y-61368500D02*
G75*
G02*
X123298000Y-61368500I-252000J0D01*
G01*
X123298000Y-61368500D02*
G75*
G02*
X123802000Y-61368500I252000J0D01*
G01*
D11*
%TO.C,G\u002A\u002A\u002A*%
G36*
X83152355Y-134679778D02*
G01*
X83152355Y-137459002D01*
X87303601Y-137459002D01*
X91454848Y-137459002D01*
X91454848Y-138831024D01*
X91454848Y-140203046D01*
X86635180Y-140203046D01*
X81815513Y-140203046D01*
X81815513Y-136051800D01*
X81815513Y-131900553D01*
X82483934Y-131900553D01*
X83152355Y-131900553D01*
X83152355Y-134679778D01*
G37*
G36*
X83152355Y-68998614D02*
G01*
X83152355Y-72446260D01*
X84559557Y-72446260D01*
X85966759Y-72446260D01*
X85966759Y-69667035D01*
X85966759Y-66887811D01*
X86635180Y-66887811D01*
X87303601Y-66887811D01*
X87303601Y-69667035D01*
X87303601Y-72446260D01*
X88710804Y-72446260D01*
X90118006Y-72446260D01*
X90118006Y-68998614D01*
X90118006Y-65550969D01*
X90786427Y-65550969D01*
X91454848Y-65550969D01*
X91454848Y-70370636D01*
X91454848Y-75190304D01*
X86635180Y-75190304D01*
X81815513Y-75190304D01*
X81815513Y-70370636D01*
X81815513Y-65550969D01*
X82483934Y-65550969D01*
X83152355Y-65550969D01*
X83152355Y-68998614D01*
G37*
G36*
X91454848Y-82789196D02*
G01*
X91454848Y-86236841D01*
X86635180Y-86236841D01*
X81815513Y-86236841D01*
X81815513Y-82789196D01*
X81815513Y-80748753D01*
X83152355Y-80748753D01*
X83152355Y-82120775D01*
X83152355Y-83492797D01*
X86635180Y-83492797D01*
X90118006Y-83492797D01*
X90118006Y-82120775D01*
X90118006Y-80748753D01*
X89414405Y-80748753D01*
X88710804Y-80748753D01*
X88710804Y-80045152D01*
X88710804Y-79341551D01*
X86635180Y-79341551D01*
X84559557Y-79341551D01*
X84559557Y-80045152D01*
X84559557Y-80748753D01*
X83855956Y-80748753D01*
X83152355Y-80748753D01*
X81815513Y-80748753D01*
X81815513Y-79341551D01*
X82481386Y-79341551D01*
X83147259Y-79341551D01*
X83167397Y-78655539D01*
X83187535Y-77969528D01*
X83873546Y-77949390D01*
X84559557Y-77929253D01*
X84559557Y-77263379D01*
X84559557Y-76597506D01*
X86635180Y-76597506D01*
X88710804Y-76597506D01*
X88710804Y-77263379D01*
X88710804Y-77929253D01*
X89396815Y-77949390D01*
X90082826Y-77969528D01*
X90102964Y-78655539D01*
X90123102Y-79341551D01*
X90788975Y-79341551D01*
X91454848Y-79341551D01*
X91454848Y-80748753D01*
X91454848Y-82789196D01*
G37*
G36*
X91454848Y-92463711D02*
G01*
X91454848Y-94539334D01*
X90786427Y-94539334D01*
X90118006Y-94539334D01*
X90118006Y-95242936D01*
X90118006Y-95946537D01*
X89414405Y-95946537D01*
X88710804Y-95946537D01*
X88710804Y-96650138D01*
X88710804Y-97353739D01*
X85263158Y-97353739D01*
X81815513Y-97353739D01*
X81815513Y-95946537D01*
X81815513Y-94539334D01*
X83187535Y-94539334D01*
X84559557Y-94539334D01*
X84559557Y-92463711D01*
X84559557Y-90388088D01*
X85966759Y-90388088D01*
X85966759Y-92463711D01*
X85966759Y-94539334D01*
X87338781Y-94539334D01*
X88710804Y-94539334D01*
X88710804Y-93870913D01*
X88710804Y-93202492D01*
X89414405Y-93202492D01*
X90118006Y-93202492D01*
X90118006Y-92498891D01*
X90118006Y-91795290D01*
X89414405Y-91795290D01*
X88710804Y-91795290D01*
X88710804Y-91091689D01*
X88710804Y-90388088D01*
X87338781Y-90388088D01*
X85966759Y-90388088D01*
X84559557Y-90388088D01*
X83187535Y-90388088D01*
X81815513Y-90388088D01*
X81815513Y-89016066D01*
X81815513Y-87644044D01*
X85263158Y-87644044D01*
X88710804Y-87644044D01*
X88710804Y-88347645D01*
X88710804Y-89051246D01*
X89414405Y-89051246D01*
X90118006Y-89051246D01*
X90118006Y-89719667D01*
X90118006Y-90388088D01*
X90786427Y-90388088D01*
X91454848Y-90388088D01*
X91454848Y-91795290D01*
X91454848Y-92463711D01*
G37*
G36*
X91454848Y-125673684D02*
G01*
X91454848Y-127749307D01*
X90786427Y-127749307D01*
X90118006Y-127749307D01*
X90118006Y-128452908D01*
X90118006Y-129156509D01*
X89414405Y-129156509D01*
X88710804Y-129156509D01*
X88710804Y-129860110D01*
X88710804Y-130563711D01*
X85263158Y-130563711D01*
X81815513Y-130563711D01*
X81815513Y-129156509D01*
X81815513Y-127749307D01*
X83187535Y-127749307D01*
X84559557Y-127749307D01*
X84559557Y-125673684D01*
X84559557Y-123598060D01*
X85966759Y-123598060D01*
X85966759Y-125673684D01*
X85966759Y-127749307D01*
X87338781Y-127749307D01*
X88710804Y-127749307D01*
X88710804Y-127080886D01*
X88710804Y-126412465D01*
X89414405Y-126412465D01*
X90118006Y-126412465D01*
X90118006Y-125708864D01*
X90118006Y-125005262D01*
X89414405Y-125005262D01*
X88710804Y-125005262D01*
X88710804Y-124301661D01*
X88710804Y-123598060D01*
X87338781Y-123598060D01*
X85966759Y-123598060D01*
X84559557Y-123598060D01*
X83187535Y-123598060D01*
X81815513Y-123598060D01*
X81815513Y-122226038D01*
X81815513Y-120854016D01*
X85263158Y-120854016D01*
X88710804Y-120854016D01*
X88710804Y-121557617D01*
X88710804Y-122261218D01*
X89414405Y-122261218D01*
X90118006Y-122261218D01*
X90118006Y-122929639D01*
X90118006Y-123598060D01*
X90786427Y-123598060D01*
X91454848Y-123598060D01*
X91454848Y-125005262D01*
X91454848Y-125673684D01*
G37*
G36*
X84559557Y-111179501D02*
G01*
X84559557Y-112551523D01*
X83855956Y-112551523D01*
X83152355Y-112551523D01*
X83152355Y-113923545D01*
X83152355Y-115295567D01*
X83855956Y-115295567D01*
X84559557Y-115295567D01*
X84559557Y-115999168D01*
X84559557Y-116702769D01*
X86635180Y-116702769D01*
X88710804Y-116702769D01*
X88710804Y-115999168D01*
X88710804Y-115295567D01*
X89414405Y-115295567D01*
X90118006Y-115295567D01*
X90118006Y-113923545D01*
X90118006Y-112551523D01*
X89414405Y-112551523D01*
X88710804Y-112551523D01*
X88710804Y-111179501D01*
X88710804Y-109807479D01*
X89414405Y-109807479D01*
X90118006Y-109807479D01*
X90118006Y-110475900D01*
X90118006Y-111144321D01*
X90786427Y-111144321D01*
X91454848Y-111144321D01*
X91454848Y-113923545D01*
X91454848Y-116702769D01*
X90788975Y-116702769D01*
X90123102Y-116702769D01*
X90102964Y-117388780D01*
X90082826Y-118074792D01*
X89396815Y-118094929D01*
X88710804Y-118115067D01*
X88710804Y-118780941D01*
X88710804Y-119446814D01*
X86635180Y-119446814D01*
X84559557Y-119446814D01*
X84559557Y-118780941D01*
X84559557Y-118115067D01*
X83873546Y-118094929D01*
X83187535Y-118074792D01*
X83167397Y-117388780D01*
X83147259Y-116702769D01*
X82481386Y-116702769D01*
X81815513Y-116702769D01*
X81815513Y-113923545D01*
X81815513Y-111144321D01*
X82483934Y-111144321D01*
X83152355Y-111144321D01*
X83152355Y-110475900D01*
X83152355Y-109807479D01*
X83855956Y-109807479D01*
X84559557Y-109807479D01*
X84559557Y-111179501D01*
G37*
G36*
X84559557Y-144389473D02*
G01*
X84559557Y-145761495D01*
X83855956Y-145761495D01*
X83152355Y-145761495D01*
X83152355Y-147133517D01*
X83152355Y-148505539D01*
X83855956Y-148505539D01*
X84559557Y-148505539D01*
X84559557Y-149209141D01*
X84559557Y-149912742D01*
X86635180Y-149912742D01*
X88710804Y-149912742D01*
X88710804Y-149209141D01*
X88710804Y-148505539D01*
X89414405Y-148505539D01*
X90118006Y-148505539D01*
X90118006Y-147133517D01*
X90118006Y-145761495D01*
X89414405Y-145761495D01*
X88710804Y-145761495D01*
X88710804Y-144389473D01*
X88710804Y-143017451D01*
X89414405Y-143017451D01*
X90118006Y-143017451D01*
X90118006Y-143685872D01*
X90118006Y-144354293D01*
X90786427Y-144354293D01*
X91454848Y-144354293D01*
X91454848Y-147133517D01*
X91454848Y-149912742D01*
X90788975Y-149912742D01*
X90123102Y-149912742D01*
X90102964Y-150598753D01*
X90082826Y-151284764D01*
X89396815Y-151304902D01*
X88710804Y-151325040D01*
X88710804Y-151990913D01*
X88710804Y-152656786D01*
X86635180Y-152656786D01*
X84559557Y-152656786D01*
X84559557Y-151990913D01*
X84559557Y-151325040D01*
X83873546Y-151304902D01*
X83187535Y-151284764D01*
X83167397Y-150598753D01*
X83147259Y-149912742D01*
X82481386Y-149912742D01*
X81815513Y-149912742D01*
X81815513Y-147133517D01*
X81815513Y-144354293D01*
X82483934Y-144354293D01*
X83152355Y-144354293D01*
X83152355Y-143685872D01*
X83152355Y-143017451D01*
X83855956Y-143017451D01*
X84559557Y-143017451D01*
X84559557Y-144389473D01*
G37*
G36*
X83152355Y-99394182D02*
G01*
X83152355Y-100097783D01*
X83855956Y-100097783D01*
X84559557Y-100097783D01*
X84559557Y-100801384D01*
X84559557Y-101504985D01*
X85263158Y-101504985D01*
X85966759Y-101504985D01*
X85966759Y-102173406D01*
X85966759Y-102841828D01*
X86635180Y-102841828D01*
X87303601Y-102841828D01*
X87303601Y-102173406D01*
X87303601Y-101504985D01*
X88007203Y-101504985D01*
X88710804Y-101504985D01*
X88710804Y-100801384D01*
X88710804Y-100097783D01*
X89414405Y-100097783D01*
X90118006Y-100097783D01*
X90118006Y-99394182D01*
X90118006Y-98690581D01*
X90786427Y-98690581D01*
X91454848Y-98690581D01*
X91454848Y-100097783D01*
X91454848Y-101504985D01*
X90786427Y-101504985D01*
X90118006Y-101504985D01*
X90118006Y-102173406D01*
X90118006Y-102841828D01*
X89414405Y-102841828D01*
X88710804Y-102841828D01*
X88710804Y-103545429D01*
X88710804Y-104249030D01*
X88004655Y-104249030D01*
X87298506Y-104249030D01*
X87318644Y-104935041D01*
X87338781Y-105621052D01*
X89396815Y-105639705D01*
X91454848Y-105658357D01*
X91454848Y-107029317D01*
X91454848Y-108400276D01*
X86635180Y-108400276D01*
X81815513Y-108400276D01*
X81815513Y-107028254D01*
X81815513Y-105656232D01*
X83187535Y-105656232D01*
X84559557Y-105656232D01*
X84559557Y-104952631D01*
X84559557Y-104249030D01*
X83855956Y-104249030D01*
X83152355Y-104249030D01*
X83152355Y-103545429D01*
X83152355Y-102841828D01*
X82483934Y-102841828D01*
X81815513Y-102841828D01*
X81815513Y-100766204D01*
X81815513Y-98690581D01*
X82483934Y-98690581D01*
X83152355Y-98690581D01*
X83152355Y-99394182D01*
G37*
%TD*%
M02*
