%TF.GenerationSoftware,KiCad,Pcbnew,9.0.2*%
%TF.CreationDate,2025-07-04T19:57:48+05:30*%
%TF.ProjectId,clackade,636c6163-6b61-4646-952e-6b696361645f,rev?*%
%TF.SameCoordinates,Original*%
%TF.FileFunction,Copper,L2,Bot*%
%TF.FilePolarity,Positive*%
%FSLAX46Y46*%
G04 Gerber Fmt 4.6, Leading zero omitted, Abs format (unit mm)*
G04 Created by KiCad (PCBNEW 9.0.2) date 2025-07-04 19:57:48*
%MOMM*%
%LPD*%
G01*
G04 APERTURE LIST*
G04 Aperture macros list*
%AMRoundRect*
0 Rectangle with rounded corners*
0 $1 Rounding radius*
0 $2 $3 $4 $5 $6 $7 $8 $9 X,Y pos of 4 corners*
0 Add a 4 corners polygon primitive as box body*
4,1,4,$2,$3,$4,$5,$6,$7,$8,$9,$2,$3,0*
0 Add four circle primitives for the rounded corners*
1,1,$1+$1,$2,$3*
1,1,$1+$1,$4,$5*
1,1,$1+$1,$6,$7*
1,1,$1+$1,$8,$9*
0 Add four rect primitives between the rounded corners*
20,1,$1+$1,$2,$3,$4,$5,0*
20,1,$1+$1,$4,$5,$6,$7,0*
20,1,$1+$1,$6,$7,$8,$9,0*
20,1,$1+$1,$8,$9,$2,$3,0*%
G04 Aperture macros list end*
%TA.AperFunction,ComponentPad*%
%ADD10C,1.815000*%
%TD*%
%TA.AperFunction,ComponentPad*%
%ADD11R,1.815000X1.815000*%
%TD*%
%TA.AperFunction,ComponentPad*%
%ADD12C,1.400000*%
%TD*%
%TA.AperFunction,ComponentPad*%
%ADD13C,2.200000*%
%TD*%
%TA.AperFunction,SMDPad,CuDef*%
%ADD14RoundRect,0.152400X-1.063600X-0.609600X1.063600X-0.609600X1.063600X0.609600X-1.063600X0.609600X0*%
%TD*%
%TA.AperFunction,ComponentPad*%
%ADD15C,1.524000*%
%TD*%
%TA.AperFunction,SMDPad,CuDef*%
%ADD16RoundRect,0.152400X1.063600X0.609600X-1.063600X0.609600X-1.063600X-0.609600X1.063600X-0.609600X0*%
%TD*%
%TA.AperFunction,ViaPad*%
%ADD17C,0.600000*%
%TD*%
%TA.AperFunction,Conductor*%
%ADD18C,0.200000*%
%TD*%
G04 APERTURE END LIST*
D10*
%TO.P,D4,A*%
%TO.N,Net-(D4-PadA)*%
X99141000Y-98839000D03*
D11*
%TO.P,D4,C*%
%TO.N,GND*%
X96601000Y-98839000D03*
%TD*%
D12*
%TO.P,R1,1*%
%TO.N,LED1*%
X75805000Y-67000000D03*
%TO.P,R1,2*%
%TO.N,Net-(D1-PadA)*%
X73905000Y-67000000D03*
%TD*%
D13*
%TO.P,SW4,1,1*%
%TO.N,SW4*%
X100292700Y-136262200D03*
%TO.P,SW4,2,2*%
%TO.N,GND*%
X93942700Y-138802200D03*
%TD*%
%TO.P,SW2,1,1*%
%TO.N,SW2*%
X81192700Y-127042200D03*
%TO.P,SW2,2,2*%
%TO.N,GND*%
X74842700Y-129582200D03*
%TD*%
D12*
%TO.P,R4,1*%
%TO.N,LED4*%
X98562200Y-67542700D03*
%TO.P,R4,2*%
%TO.N,Net-(D4-PadA)*%
X96662200Y-67542700D03*
%TD*%
%TO.P,R3,1*%
%TO.N,LED3*%
X90962200Y-67342700D03*
%TO.P,R3,2*%
%TO.N,Net-(D3-PadA)*%
X89062200Y-67342700D03*
%TD*%
D10*
%TO.P,D1,A*%
%TO.N,Net-(D1-PadA)*%
X99141000Y-81339000D03*
D11*
%TO.P,D1,C*%
%TO.N,GND*%
X96601000Y-81339000D03*
%TD*%
D10*
%TO.P,D2,A*%
%TO.N,Net-(D2-PadA)*%
X86271000Y-89739000D03*
D11*
%TO.P,D2,C*%
%TO.N,GND*%
X83731000Y-89739000D03*
%TD*%
D10*
%TO.P,D3,A*%
%TO.N,Net-(D3-PadA)*%
X113141000Y-90039000D03*
D11*
%TO.P,D3,C*%
%TO.N,GND*%
X110601000Y-90039000D03*
%TD*%
D13*
%TO.P,SW3,1,1*%
%TO.N,SW3*%
X119502700Y-126802200D03*
%TO.P,SW3,2,2*%
%TO.N,GND*%
X113152700Y-129342200D03*
%TD*%
%TO.P,SW1,1,1*%
%TO.N,SW1*%
X100352700Y-117342200D03*
%TO.P,SW1,2,2*%
%TO.N,GND*%
X94002700Y-119882200D03*
%TD*%
D12*
%TO.P,R2,1*%
%TO.N,LED2*%
X83405000Y-67000000D03*
%TO.P,R2,2*%
%TO.N,Net-(D2-PadA)*%
X81505000Y-67000000D03*
%TD*%
D14*
%TO.P,U1,1,GPIO26/ADC0/A0*%
%TO.N,LED1*%
X123055000Y-64048500D03*
D15*
X122220000Y-64048500D03*
D14*
%TO.P,U1,2,GPIO27/ADC1/A1*%
%TO.N,LED2*%
X123055000Y-66588500D03*
D15*
X122220000Y-66588500D03*
D14*
%TO.P,U1,3,GPIO28/ADC2/A2*%
%TO.N,LED3*%
X123055000Y-69128500D03*
D15*
X122220000Y-69128500D03*
D14*
%TO.P,U1,4,GPIO29/ADC3/A3*%
%TO.N,LED4*%
X123055000Y-71668500D03*
D15*
X122220000Y-71668500D03*
D14*
%TO.P,U1,5,GPIO6/SDA*%
%TO.N,unconnected-(U1-GPIO6{slash}SDA-Pad5)*%
X123055000Y-74208500D03*
D15*
X122220000Y-74208500D03*
D14*
%TO.P,U1,6,GPIO7/SCL*%
%TO.N,SW1*%
X123055000Y-76748500D03*
D15*
X122220000Y-76748500D03*
D14*
%TO.P,U1,7,GPIO0/TX*%
%TO.N,SW2*%
X123055000Y-79288500D03*
D15*
X122220000Y-79288500D03*
%TO.P,U1,8,GPIO1/RX*%
%TO.N,SW4*%
X106980000Y-79288500D03*
D16*
X106145000Y-79288500D03*
D15*
%TO.P,U1,9,GPIO2/SCK*%
%TO.N,SW3*%
X106980000Y-76748500D03*
D16*
X106145000Y-76748500D03*
D15*
%TO.P,U1,10,GPIO4/MISO*%
%TO.N,unconnected-(U1-GPIO4{slash}MISO-Pad10)*%
X106980000Y-74208500D03*
D16*
X106145000Y-74208500D03*
D15*
%TO.P,U1,11,GPIO3/MOSI*%
%TO.N,unconnected-(U1-GPIO3{slash}MOSI-Pad11)*%
X106980000Y-71668500D03*
D16*
X106145000Y-71668500D03*
D15*
%TO.P,U1,12,3V3*%
%TO.N,unconnected-(U1-3V3-Pad12)*%
X106980000Y-69128500D03*
D16*
X106145000Y-69128500D03*
D15*
%TO.P,U1,13,GND*%
%TO.N,GND*%
X106980000Y-66588500D03*
D16*
X106145000Y-66588500D03*
D15*
%TO.P,U1,14,VBUS*%
%TO.N,unconnected-(U1-VBUS-Pad14)*%
X106980000Y-64048500D03*
D16*
X106145000Y-64048500D03*
%TD*%
D17*
%TO.N,SW1*%
X115151200Y-115620300D03*
%TO.N,SW2*%
X118323100Y-124135000D03*
%TD*%
D18*
%TO.N,Net-(D1-PadA)*%
X97150600Y-79348600D02*
X99141000Y-81339000D01*
X86253600Y-79348600D02*
X97150600Y-79348600D01*
X73905000Y-67000000D02*
X86253600Y-79348600D01*
%TO.N,GND*%
X93942700Y-138802200D02*
X103402700Y-129342200D01*
X113152700Y-129342200D02*
X103402700Y-129342200D01*
X110601000Y-90039000D02*
X106156700Y-90039000D01*
X87954500Y-88529800D02*
X85695900Y-88529800D01*
X85695900Y-88529800D02*
X84940200Y-89285500D01*
X96601000Y-98839000D02*
X97810200Y-98839000D01*
X74842700Y-129582200D02*
X75496900Y-128928000D01*
X86364900Y-119882200D02*
X94002700Y-119882200D01*
X75496900Y-128928000D02*
X77319100Y-128928000D01*
X81408000Y-129342200D02*
X79156500Y-127090600D01*
X83731000Y-89739000D02*
X84940200Y-89739000D01*
X77319100Y-128928000D02*
X79156500Y-127090600D01*
X79156500Y-127090600D02*
X86364900Y-119882200D01*
X97810200Y-98385500D02*
X97810200Y-98839000D01*
X106980000Y-66588500D02*
X106145000Y-66588500D01*
X84940200Y-89285500D02*
X84940200Y-89739000D01*
X106156700Y-90039000D02*
X97810200Y-98385500D01*
X103402700Y-129342200D02*
X81408000Y-129342200D01*
X97810200Y-98385500D02*
X87954500Y-88529800D01*
%TO.N,Net-(D3-PadA)*%
X113141000Y-90039000D02*
X102050400Y-78948400D01*
X100667900Y-78948400D02*
X89062200Y-67342700D01*
X102050400Y-78948400D02*
X100667900Y-78948400D01*
%TO.N,LED1*%
X121088500Y-62917000D02*
X122220000Y-64048500D01*
X79888000Y-62917000D02*
X121088500Y-62917000D01*
X122220000Y-64048500D02*
X123055000Y-64048500D01*
X75805000Y-67000000D02*
X79888000Y-62917000D01*
%TO.N,LED2*%
X123055000Y-66588500D02*
X122220000Y-66588500D01*
X84895300Y-65509700D02*
X83405000Y-67000000D01*
X121141200Y-65509700D02*
X84895300Y-65509700D01*
X122220000Y-66588500D02*
X121141200Y-65509700D01*
%TO.N,LED3*%
X122220000Y-69128500D02*
X120950000Y-67858500D01*
X91767000Y-66537900D02*
X90962200Y-67342700D01*
X102000800Y-66537900D02*
X91767000Y-66537900D01*
X123055000Y-69128500D02*
X122220000Y-69128500D01*
X103321400Y-67858500D02*
X102000800Y-66537900D01*
X120950000Y-67858500D02*
X103321400Y-67858500D01*
%TO.N,LED4*%
X123055000Y-71668500D02*
X122220000Y-71668500D01*
X101418300Y-70398800D02*
X120950300Y-70398800D01*
X98562200Y-67542700D02*
X101418300Y-70398800D01*
X120950300Y-70398800D02*
X122220000Y-71668500D01*
%TO.N,SW1*%
X102074600Y-115620300D02*
X100352700Y-117342200D01*
X122220000Y-76748500D02*
X123055000Y-76748500D01*
X115151200Y-115620300D02*
X102074600Y-115620300D01*
%TO.N,SW2*%
X81192700Y-127042200D02*
X115415900Y-127042200D01*
X115415900Y-127042200D02*
X118323100Y-124135000D01*
X123055000Y-79288500D02*
X122220000Y-79288500D01*
%TO.N,SW3*%
X106980000Y-76748500D02*
X106145000Y-76748500D01*
%TO.N,SW4*%
X106145000Y-79288500D02*
X106980000Y-79288500D01*
%TO.N,unconnected-(U1-VBUS-Pad14)*%
X106145000Y-64048500D02*
X106980000Y-64048500D01*
%TO.N,unconnected-(U1-3V3-Pad12)*%
X106145000Y-69128500D02*
X106980000Y-69128500D01*
%TO.N,unconnected-(U1-GPIO3{slash}MOSI-Pad11)*%
X106980000Y-71668500D02*
X106145000Y-71668500D01*
%TO.N,unconnected-(U1-GPIO4{slash}MISO-Pad10)*%
X106145000Y-74208500D02*
X106980000Y-74208500D01*
%TO.N,unconnected-(U1-GPIO6{slash}SDA-Pad5)*%
X123055000Y-74208500D02*
X122220000Y-74208500D01*
%TD*%
M02*
