%TF.GenerationSoftware,KiCad,Pcbnew,9.0.2*%
%TF.CreationDate,2025-07-04T19:57:49+05:30*%
%TF.ProjectId,clackade,636c6163-6b61-4646-952e-6b696361645f,rev?*%
%TF.SameCoordinates,Original*%
%TF.FileFunction,Profile,NP*%
%FSLAX46Y46*%
G04 Gerber Fmt 4.6, Leading zero omitted, Abs format (unit mm)*
G04 Created by KiCad (PCBNEW 9.0.2) date 2025-07-04 19:57:49*
%MOMM*%
%LPD*%
G01*
G04 APERTURE LIST*
%TA.AperFunction,Profile*%
%ADD10C,0.100000*%
%TD*%
G04 APERTURE END LIST*
D10*
X123299313Y-60746843D02*
X123567182Y-60758247D01*
X123825805Y-60778165D01*
X124075956Y-60807008D01*
X124318409Y-60845182D01*
X124436989Y-60867896D01*
X124553935Y-60893097D01*
X124669342Y-60920834D01*
X124783307Y-60951160D01*
X124895928Y-60984126D01*
X125007300Y-61019782D01*
X125117521Y-61058179D01*
X125226686Y-61099369D01*
X125334780Y-61143376D01*
X125441879Y-61190210D01*
X125548085Y-61239912D01*
X125653498Y-61292521D01*
X125758219Y-61348077D01*
X125862350Y-61406618D01*
X125965991Y-61468187D01*
X126069242Y-61532821D01*
X126172206Y-61600560D01*
X126274982Y-61671445D01*
X126377672Y-61745515D01*
X126480376Y-61822810D01*
X126583196Y-61903369D01*
X126686233Y-61987232D01*
X126789586Y-62074439D01*
X126893358Y-62165030D01*
X127004841Y-62265344D01*
X127012632Y-62272474D01*
X127018963Y-62280558D01*
X127171326Y-62482583D01*
X127310167Y-62677739D01*
X127374670Y-62773211D01*
X127435977Y-62867529D01*
X127494149Y-62960881D01*
X127549247Y-63053456D01*
X127601333Y-63145441D01*
X127650468Y-63237024D01*
X127696713Y-63328394D01*
X127740130Y-63419738D01*
X127780780Y-63511243D01*
X127818724Y-63603099D01*
X127854025Y-63695492D01*
X127886742Y-63788612D01*
X127916955Y-63882487D01*
X127944663Y-63977262D01*
X127969946Y-64073119D01*
X127992884Y-64170238D01*
X128013554Y-64268801D01*
X128032038Y-64368990D01*
X128048415Y-64470984D01*
X128062764Y-64574966D01*
X128075164Y-64681117D01*
X128085696Y-64789618D01*
X128101471Y-65014395D01*
X128110726Y-65250746D01*
X128114096Y-65500123D01*
X128117991Y-66352324D01*
X128117991Y-66352787D01*
X128118230Y-67292716D01*
X128121395Y-68288242D01*
X128121395Y-68288485D01*
X128126997Y-71030963D01*
X128133566Y-73986431D01*
X128146467Y-81128471D01*
X128149387Y-83145933D01*
X128163748Y-95676142D01*
X128165938Y-98579131D01*
X128166430Y-99307922D01*
X128187845Y-110988999D01*
X128205133Y-122984333D01*
X128208291Y-126351270D01*
X128216812Y-129717967D01*
X128223628Y-135455052D01*
X128223691Y-136917225D01*
X128229229Y-138379214D01*
X128233337Y-139721260D01*
X128229959Y-141063127D01*
X128232088Y-141771712D01*
X128238964Y-142481023D01*
X128238964Y-142483466D01*
X128227634Y-142909040D01*
X128201663Y-143323973D01*
X128161446Y-143728664D01*
X128107377Y-144123516D01*
X127959261Y-144885306D01*
X127760466Y-145612554D01*
X127514147Y-146308469D01*
X127223456Y-146976263D01*
X126891546Y-147619145D01*
X126521571Y-148240327D01*
X126116684Y-148843019D01*
X125680038Y-149430431D01*
X125214786Y-150005774D01*
X124724081Y-150572258D01*
X124211076Y-151133094D01*
X123678925Y-151691493D01*
X122569796Y-152813820D01*
X122569764Y-152813790D01*
X122569733Y-152813760D01*
X122569702Y-152813730D01*
X122569672Y-152813699D01*
X122569611Y-152813637D01*
X122569550Y-152813574D01*
X121910104Y-153479536D01*
X121253395Y-154148968D01*
X121253335Y-154149088D01*
X121253274Y-154149206D01*
X121253150Y-154149445D01*
X120332147Y-155077509D01*
X119951171Y-155457066D01*
X119614289Y-155787065D01*
X119314810Y-156072576D01*
X119046040Y-156318668D01*
X118801290Y-156530409D01*
X118573865Y-156712870D01*
X118463377Y-156795569D01*
X118354730Y-156872764D01*
X118247099Y-156945109D01*
X118139660Y-157013255D01*
X118031589Y-157077855D01*
X117922062Y-157139562D01*
X117810255Y-157199028D01*
X117695344Y-157256906D01*
X117576505Y-157313848D01*
X117452915Y-157370508D01*
X117188181Y-157485587D01*
X116894551Y-157607365D01*
X116565433Y-157741061D01*
X115676232Y-158114460D01*
X115674288Y-158115436D01*
X115671849Y-158116173D01*
X115483583Y-158183244D01*
X115296686Y-158243972D01*
X115110876Y-158298620D01*
X114925873Y-158347449D01*
X114741396Y-158390723D01*
X114557165Y-158428704D01*
X114372899Y-158461656D01*
X114188318Y-158489841D01*
X114003140Y-158513523D01*
X113817086Y-158532963D01*
X113441224Y-158560170D01*
X113058487Y-158573566D01*
X112666631Y-158575254D01*
X112117725Y-158579142D01*
X112117483Y-158579142D01*
X111213615Y-158581064D01*
X110310114Y-158579142D01*
X109009050Y-158584498D01*
X109008805Y-158584498D01*
X105483648Y-158586933D01*
X102538795Y-158589130D01*
X95589979Y-158589376D01*
X88426493Y-158596430D01*
X82269050Y-158602270D01*
X78594749Y-158605927D01*
X76867293Y-158608355D01*
X75139620Y-158604460D01*
X74507296Y-158604460D01*
X73874754Y-158606650D01*
X73009000Y-158607658D01*
X72143721Y-158603007D01*
X71641455Y-158609815D01*
X71639532Y-158610061D01*
X71637877Y-158609815D01*
X71367308Y-158599794D01*
X71106136Y-158578165D01*
X70853686Y-158544981D01*
X70609286Y-158500295D01*
X70372262Y-158444161D01*
X70141939Y-158376631D01*
X69917645Y-158297759D01*
X69698706Y-158207598D01*
X69484447Y-158106200D01*
X69274197Y-157993620D01*
X69067280Y-157869910D01*
X68863024Y-157735123D01*
X68660755Y-157589312D01*
X68459798Y-157432531D01*
X68259481Y-157264832D01*
X68059131Y-157086269D01*
X68051288Y-157079215D01*
X68045107Y-157071185D01*
X67884587Y-156857553D01*
X67810213Y-156753692D01*
X67739647Y-156651529D01*
X67672803Y-156550860D01*
X67609592Y-156451479D01*
X67549929Y-156353183D01*
X67493725Y-156255768D01*
X67440894Y-156159028D01*
X67391349Y-156062761D01*
X67345003Y-155966760D01*
X67301768Y-155870823D01*
X67261558Y-155774744D01*
X67224285Y-155678320D01*
X67189863Y-155581346D01*
X67158204Y-155483618D01*
X67129321Y-155385306D01*
X67103056Y-155286042D01*
X67079302Y-155185630D01*
X67057956Y-155083877D01*
X67038910Y-154980588D01*
X67022061Y-154875568D01*
X67007302Y-154768624D01*
X66994528Y-154659560D01*
X66974515Y-154434299D01*
X66961178Y-154198229D01*
X66953673Y-153949796D01*
X66951159Y-153687445D01*
X66948306Y-152724734D01*
X66948306Y-152724488D01*
X66949019Y-151660759D01*
X66946880Y-150535445D01*
X66944265Y-147434804D01*
X66940222Y-144094154D01*
X66934519Y-136785814D01*
X66931666Y-132224426D01*
X66925247Y-119600838D01*
X66925247Y-118784660D01*
X66925009Y-117966051D01*
X66924773Y-116324205D01*
X66924534Y-115501703D01*
X66913600Y-102301705D01*
X66904567Y-88756784D01*
X66898386Y-81149161D01*
X66895533Y-74671284D01*
X66895772Y-73018460D01*
X66892919Y-71365661D01*
X66890649Y-69852601D01*
X66892919Y-68339579D01*
X66892681Y-67792134D01*
X66890541Y-67244933D01*
X66889668Y-66500368D01*
X66892681Y-65756368D01*
X66892206Y-64921302D01*
X66892206Y-64913927D01*
X66892919Y-64906795D01*
X66926740Y-64664879D01*
X66969759Y-64430634D01*
X67022104Y-64203772D01*
X67083906Y-63984007D01*
X67155293Y-63771049D01*
X67236395Y-63564613D01*
X67327341Y-63364410D01*
X67428259Y-63170153D01*
X67539280Y-62981554D01*
X67660533Y-62798325D01*
X67792146Y-62620179D01*
X67934250Y-62446828D01*
X68086972Y-62277985D01*
X68250443Y-62113362D01*
X68424792Y-61952671D01*
X68610148Y-61795626D01*
X69042544Y-61434541D01*
X69046584Y-61430975D01*
X69051112Y-61428123D01*
X69149568Y-61362178D01*
X69248695Y-61301129D01*
X69448872Y-61192986D01*
X69651447Y-61102223D01*
X69856229Y-61027371D01*
X70063025Y-60966958D01*
X70271640Y-60919516D01*
X70481883Y-60883573D01*
X70693560Y-60857661D01*
X70906477Y-60840308D01*
X71120443Y-60830046D01*
X71550744Y-60824910D01*
X72415422Y-60835033D01*
X73088153Y-60832180D01*
X75330020Y-60827901D01*
X75330020Y-60827665D01*
X76933624Y-60822911D01*
X81297283Y-60814114D01*
X84022405Y-60809837D01*
X92056300Y-60800091D01*
X93526291Y-60798900D01*
X94017994Y-60798664D01*
X101900311Y-60782499D01*
X109994889Y-60769186D01*
X114538505Y-60760392D01*
X116676069Y-60755190D01*
X118813632Y-60756112D01*
X119597554Y-60755032D01*
X120381479Y-60751359D01*
X120917724Y-60749219D01*
X121720603Y-60749302D01*
X122523298Y-60752072D01*
X123149611Y-60743990D01*
X123152289Y-60743990D01*
X123299313Y-60746843D01*
M02*
