<svg width="254" height="404" viewBox="0 0 254 404" fill="none" xmlns="http://www.w3.org/2000/svg">
<path d="M253.004 28.2057C253.008 29.5689 253.013 30.9323 253.017 32.2955V32.2965C253.029 36.0522 253.035 39.8078 253.04 43.5631C253.046 47.61 253.056 51.6573 253.067 55.7047C253.092 65.485 253.107 75.2654 253.12 85.0455C253.124 87.8082 253.128 90.5709 253.132 93.3336C253.157 110.492 253.179 127.651 253.191 144.81C253.194 148.785 253.197 152.761 253.2 156.736C253.201 157.724 253.201 158.712 253.202 159.73C253.215 175.726 253.248 191.722 253.29 207.718C253.332 224.144 253.356 240.571 253.361 256.997L253.374 270.829C253.381 275.439 253.392 280.05 253.409 284.66C253.437 292.516 253.448 300.373 253.437 308.229C253.432 312.234 253.435 316.238 253.46 320.242C253.482 323.918 253.482 327.593 253.463 331.268C253.459 333.208 253.478 335.149 253.5 337.093V337.103C253.33 355.991 242.619 367.136 230.21 379.542L230.209 379.541C228.396 381.358 226.6 383.191 224.802 385.027L224.801 385.029C219.102 390.785 216.215 393.703 213.794 395.56C211.347 397.437 209.367 398.235 205.543 399.784C203.736 400.542 203.734 400.544 201.89 401.318L201.882 401.322L201.872 401.325C197.73 402.866 193.877 403.249 189.526 403.211C188.774 403.216 188.046 403.222 187.271 403.227H187.27C184.794 403.241 182.319 403.234 179.845 403.227C178.064 403.233 176.282 403.241 174.5 403.249H174.499C169.671 403.267 164.844 403.265 160.017 403.259C155.985 403.256 151.952 403.262 147.919 403.268C138.403 403.282 128.887 403.281 119.372 403.269C109.563 403.258 99.7528 403.272 89.9431 403.298C81.5111 403.321 73.0792 403.328 64.6472 403.322C59.6155 403.318 54.5836 403.32 49.5525 403.337C47.1868 403.345 44.8213 403.349 42.4558 403.347L35.3582 403.331C34.4923 403.329 33.6264 403.329 32.7605 403.331L30.1619 403.34C27.7899 403.354 25.4199 403.342 23.0505 403.325C22.39 403.334 21.668 403.344 20.9871 403.353L20.9792 403.354L20.9724 403.353C14.9363 403.261 10.6653 401.125 6.27026 397.094L6.23804 397.065L6.21265 397.032C4.36623 394.644 3.23311 392.661 2.56909 390.51C1.90681 388.365 1.7218 386.087 1.71851 383.131L1.70679 379.176V379.175C1.70757 377.719 1.70875 376.262 1.70972 374.805C1.70713 373.264 1.70434 371.723 1.70093 370.182C1.69284 365.936 1.69092 361.69 1.69019 357.444C1.68834 352.87 1.68032 348.295 1.67358 343.72C1.65999 333.712 1.65455 323.704 1.65015 313.696C1.64739 307.45 1.64293 301.203 1.63843 294.957C1.62623 277.67 1.61544 260.384 1.61206 243.097C1.61184 241.992 1.61229 240.882 1.61206 239.744C1.61184 238.638 1.61131 237.521 1.61108 236.381C1.61064 234.133 1.61056 231.885 1.61011 229.636C1.60989 228.524 1.60936 227.403 1.60913 226.257C1.60518 208.181 1.58749 190.105 1.56421 172.029C1.54051 153.481 1.52827 134.933 1.5271 116.384C1.52618 105.966 1.51984 95.5483 1.50171 85.1305C1.48633 76.2598 1.48172 67.3889 1.48999 58.5182L1.49097 51.7281C1.48946 49.4647 1.48625 47.2014 1.47925 44.9381C1.46655 40.794 1.46708 36.6503 1.47925 32.5064L1.47827 30.2574C1.47665 29.5081 1.47382 28.7586 1.46948 28.0094C1.45842 25.9698 1.46805 23.9306 1.47827 21.8941C1.47767 20.7603 1.47693 19.6316 1.47632 18.4635V18.4332L1.47925 18.4039C2.12046 13.0173 4.35121 9.02574 8.53394 5.62265C9.12 5.13298 9.70649 4.64375 10.3103 4.13925L10.3269 4.1246L10.3455 4.11288C14.6448 1.11317 19.4324 1.67527 24.1667 1.67636C25.0787 1.67269 25.9909 1.66843 26.9304 1.66464C30.0007 1.65359 33.0709 1.65087 36.1404 1.64706V1.64609C38.3363 1.63982 40.5324 1.63356 42.7283 1.62656L60.655 1.59042C64.3866 1.58528 68.1187 1.57913 71.8503 1.57285C82.8519 1.55489 93.8535 1.54064 104.855 1.53281C106.868 1.53137 108.881 1.52939 110.894 1.52792C111.561 1.52744 112.227 1.52745 112.914 1.52695C123.708 1.51865 134.502 1.49302 145.296 1.46054C156.38 1.42746 167.465 1.40938 178.55 1.40585C184.772 1.4035 190.994 1.39483 197.216 1.36972C203.07 1.34647 208.925 1.34185 214.779 1.35214C216.926 1.35264 219.073 1.34631 221.22 1.33261L223.423 1.32382C225.622 1.31896 227.821 1.32568 230.019 1.33554C230.868 1.32458 231.717 1.31363 232.592 1.30234H232.603L233.207 1.31406C236.195 1.39384 238.744 1.82885 241.125 2.7623C243.505 3.69582 245.693 5.118 247.972 7.14023L248.43 7.55234L248.462 7.58163L248.488 7.61484C250.233 9.87118 251.364 11.7606 252.053 13.8102C252.743 15.8585 252.98 18.0328 252.987 20.8414L253.003 24.3424V24.3443C253.003 25.6074 253.003 26.904 253.004 28.2057Z" stroke="black"/>
</svg>
