<svg width="251" height="401" viewBox="0 0 251 401" fill="none" xmlns="http://www.w3.org/2000/svg">
<g clip-path="url(#clip0_11_393)">
<path d="M22.8175 0.85282C23.7299 0.849144 24.6422 0.845467 25.5822 0.841679C28.6521 0.830629 31.722 0.826796 34.792 0.822989C36.9879 0.816726 39.1839 0.810079 41.3798 0.803077C47.3551 0.785658 53.3304 0.775113 59.3057 0.766871C63.0374 0.761723 66.7691 0.755647 70.5008 0.74936C81.5025 0.731399 92.5041 0.71702 103.506 0.709184C105.519 0.707745 107.532 0.706294 109.545 0.704825C110.211 0.704341 110.878 0.703858 111.564 0.703359C122.358 0.695059 133.153 0.669722 143.947 0.637245C155.031 0.604166 166.116 0.586494 177.2 0.582967C183.423 0.580614 189.645 0.571623 195.868 0.546506C201.722 0.523259 207.575 0.518978 213.429 0.529267C215.577 0.529763 217.726 0.523416 219.874 0.509711C222.808 0.492041 225.741 0.499075 228.674 0.512244C229.524 0.501275 230.373 0.490306 231.248 0.479004C237.667 0.548527 241.915 2.17058 246.742 6.59765C250.196 11.0633 251.124 13.9539 251.137 19.5206C251.142 20.6756 251.147 21.8307 251.152 23.0208C251.153 24.2956 251.153 25.5705 251.154 26.884C251.158 28.2475 251.162 29.611 251.167 30.9744C251.179 34.7298 251.185 38.4852 251.189 42.2406C251.195 46.2878 251.207 50.3351 251.218 54.3823C251.242 64.1624 251.257 73.9426 251.27 83.7227C251.273 86.4855 251.277 89.2483 251.281 92.0111C251.307 109.17 251.329 126.328 251.341 143.487C251.344 147.462 251.347 151.438 251.35 155.413C251.351 156.401 251.352 157.389 251.352 158.407C251.365 174.403 251.398 190.4 251.44 206.396C251.482 222.822 251.506 239.248 251.511 255.674C251.514 264.895 251.526 274.117 251.559 283.338C251.587 291.194 251.598 299.049 251.587 306.905C251.582 310.911 251.585 314.916 251.609 318.921C251.632 322.595 251.631 326.268 251.612 329.942C251.608 331.887 251.629 333.831 251.65 335.776C251.483 354.436 240.925 365.449 228.506 377.864C226.691 379.683 224.893 381.518 223.096 383.354C211.671 394.894 211.671 394.894 204 398C202.192 398.759 202.192 398.759 200.347 399.533C196.281 401.047 192.493 401.426 188.176 401.388C187.431 401.393 186.685 401.398 185.918 401.404C183.444 401.418 180.97 401.411 178.496 401.404C176.713 401.41 174.93 401.417 173.147 401.425C168.321 401.443 163.495 401.442 158.668 401.436C154.635 401.433 150.601 401.439 146.568 401.445C137.053 401.459 127.537 401.457 118.022 401.446C108.212 401.435 98.4022 401.449 88.5921 401.475C80.1605 401.498 71.7289 401.504 63.2972 401.498C58.2652 401.495 53.2333 401.497 48.2012 401.515C43.4708 401.53 38.7408 401.526 34.0104 401.507C32.2766 401.504 30.5428 401.507 28.8091 401.517C26.438 401.53 24.0683 401.519 21.6973 401.501C21.015 401.511 20.3327 401.52 19.6297 401.53C13.7417 401.44 9.58354 399.369 5.25778 395.402C1.60864 390.684 0.875016 387.686 0.86854 381.807C0.864699 380.502 0.860857 379.197 0.8569 377.852C0.85768 376.395 0.85856 374.938 0.859526 373.481C0.856944 371.94 0.853931 370.399 0.850524 368.858C0.84244 364.612 0.840664 360.367 0.839926 356.121C0.838078 351.546 0.830531 346.971 0.82379 342.396C0.810197 332.388 0.804182 322.38 0.799781 312.372C0.79702 306.126 0.792782 299.879 0.788275 293.633C0.776082 276.347 0.765782 259.06 0.7624 241.774C0.762181 240.667 0.761961 239.56 0.761735 238.42C0.761516 237.311 0.761298 236.201 0.761073 235.058C0.760629 232.81 0.760183 230.561 0.759734 228.313C0.759512 227.198 0.759291 226.083 0.759062 224.934C0.755113 206.858 0.737657 188.781 0.714375 170.705C0.690678 152.157 0.6782 133.609 0.677033 115.061C0.676115 104.643 0.67034 94.2243 0.652213 83.806C0.636833 74.9356 0.631678 66.0653 0.63995 57.195C0.643865 52.6677 0.642891 48.1405 0.628894 43.6133C0.6162 39.4699 0.617313 35.3268 0.629485 31.1834C0.63145 29.6834 0.628326 28.1833 0.619639 26.6834C0.608586 24.6459 0.617805 22.6083 0.628031 20.5708C0.627434 19.4386 0.626837 18.3064 0.626221 17.1398C1.25187 11.8838 3.41647 8.00981 7.49997 4.68749C8.08778 4.19636 8.67559 3.70523 9.28122 3.19921C13.4183 0.312623 17.9964 0.851784 22.8175 0.85282ZM15.2882 15.1418C13.4271 17.8262 13.6239 19.8572 13.6224 23.1079C13.6146 24.394 13.6068 25.68 13.5987 27.005C13.6052 28.4404 13.612 29.8758 13.619 31.3113C13.6156 32.8297 13.6108 34.348 13.6048 35.8664C13.5923 40.0497 13.5985 44.2328 13.6078 48.416C13.6146 52.9232 13.6041 57.4304 13.5959 61.9376C13.5825 70.7716 13.5854 79.6054 13.5941 88.4393C13.6009 95.6165 13.6018 102.794 13.5985 109.971C13.5981 110.991 13.5976 112.011 13.5971 113.062C13.5962 115.134 13.5952 117.206 13.5942 119.278C13.5856 138.724 13.5955 158.17 13.6116 177.616C13.625 194.314 13.6227 211.013 13.6089 227.712C13.5928 247.086 13.5865 266.461 13.5957 285.836C13.5966 287.9 13.5976 289.965 13.5985 292.029C13.599 293.045 13.5994 294.061 13.5999 295.108C13.6025 302.279 13.5981 309.451 13.5911 316.622C13.5827 325.358 13.5849 334.093 13.6009 342.828C13.6088 347.289 13.6119 351.749 13.602 356.209C13.5931 360.287 13.5979 364.365 13.6139 368.444C13.6173 369.923 13.6155 371.403 13.6083 372.883C13.5992 374.886 13.6103 376.889 13.6224 378.892C13.6229 380.007 13.6234 381.122 13.6239 382.271C13.7846 385.004 13.7846 385.004 15.3308 386.858C18.0727 388.734 20.6875 388.388 23.9616 388.401C24.6744 388.408 25.3872 388.415 26.1216 388.422C28.5167 388.441 30.9112 388.438 33.3064 388.436C35.0213 388.445 36.7363 388.455 38.4512 388.466C43.117 388.493 47.7826 388.5 52.4485 388.502C55.3661 388.504 58.2837 388.51 61.2014 388.518C71.3884 388.546 81.5753 388.558 91.7624 388.556C101.242 388.554 110.722 388.586 120.202 388.633C128.349 388.672 136.496 388.688 144.643 388.687C149.505 388.686 154.367 388.694 159.228 388.726C163.81 388.755 168.39 388.755 172.971 388.734C174.645 388.73 176.318 388.737 177.992 388.756C190.65 388.885 200.897 386.594 210.322 377.511C210.832 376.989 211.342 376.467 211.867 375.93C212.435 375.367 213.003 374.805 213.589 374.226C214.77 373.048 215.944 371.863 217.111 370.671C218.873 368.877 220.664 367.118 222.461 365.359C223.619 364.197 224.775 363.033 225.93 361.867C226.452 361.357 226.974 360.848 227.511 360.322C236.207 351.299 238.895 341.461 238.742 329.201C238.746 327.848 238.754 326.495 238.764 325.142C238.783 321.458 238.765 317.774 238.74 314.09C238.72 310.105 238.735 306.119 238.746 302.133C238.761 294.341 238.744 286.55 238.716 278.758C238.685 269.683 238.685 260.608 238.687 251.534C238.688 235.348 238.661 219.163 238.617 202.977C238.575 187.268 238.554 171.559 238.556 155.849C238.556 154.88 238.556 153.912 238.556 152.913C238.556 151.946 238.556 150.979 238.557 149.982C238.559 132.091 238.541 114.201 238.514 96.3101C238.505 89.9815 238.502 83.6529 238.501 77.3243C238.499 69.6211 238.485 61.9181 238.458 54.215C238.444 50.2834 238.435 46.3521 238.438 42.4205C238.442 38.8253 238.431 35.2305 238.409 31.6353C238.401 29.7115 238.408 27.7876 238.415 25.8637C238.406 24.7296 238.396 23.5954 238.386 22.4269C238.383 20.9529 238.383 20.9529 238.379 19.4491C238.182 16.9701 238.182 16.9701 236.711 15.1844C233.661 13.0733 229.966 13.5904 226.383 13.619C225.047 13.612 225.047 13.612 223.684 13.6049C220.688 13.5929 217.692 13.6024 214.695 13.6118C212.552 13.6077 210.409 13.6024 208.265 13.5959C202.435 13.5822 196.605 13.5875 190.774 13.597C184.682 13.6046 178.589 13.5976 172.497 13.5929C162.264 13.5874 152.031 13.5946 141.799 13.6089C129.957 13.6252 118.115 13.6199 106.273 13.6034C96.1186 13.5898 85.964 13.5879 75.8094 13.5957C69.739 13.6004 63.6686 13.601 57.5982 13.5911C51.892 13.5825 46.1861 13.5884 40.4799 13.6058C38.3816 13.6098 36.2833 13.6086 34.1851 13.602C31.3287 13.5938 28.473 13.604 25.6167 13.619C24.7792 13.6123 23.9418 13.6057 23.079 13.5988C18.9695 13.5604 18.9695 13.5604 15.2882 15.1418Z" fill="black"/>
<path d="M38.7808 43.619C39.5574 43.6143 40.334 43.6097 41.1342 43.6048C43.7329 43.5929 46.331 43.6023 48.9297 43.6118C50.7942 43.6077 52.6588 43.6024 54.5233 43.5959C59.5852 43.5822 64.6469 43.5875 69.7089 43.597C75.005 43.6046 80.3011 43.5975 85.5972 43.5928C94.4913 43.5874 103.385 43.5946 112.279 43.6089C122.564 43.6252 132.848 43.6199 143.132 43.6034C151.96 43.5898 160.789 43.5878 169.617 43.5957C174.89 43.6004 180.164 43.601 185.437 43.5911C190.395 43.5824 195.352 43.5884 200.31 43.6058C202.13 43.6097 203.95 43.6086 205.77 43.602C208.253 43.5938 210.736 43.6041 213.219 43.619C213.941 43.6123 214.662 43.6056 215.405 43.5987C219.725 43.6493 222.753 44.0391 226 47C226.629 49.8283 226.629 49.8283 226.635 53.3388C226.643 53.9845 226.651 54.6301 226.659 55.2953C226.679 57.4631 226.663 59.6291 226.647 61.7968C226.654 63.3491 226.663 64.9013 226.674 66.4535C226.696 70.6726 226.687 74.891 226.672 79.1102C226.659 83.521 226.671 87.9319 226.679 92.3427C226.688 99.7507 226.676 107.158 226.652 114.566C226.625 123.137 226.633 131.706 226.661 140.276C226.684 147.628 226.687 154.98 226.674 162.333C226.666 166.726 226.665 171.12 226.682 175.514C226.696 179.644 226.686 183.774 226.657 187.904C226.65 189.422 226.652 190.94 226.663 192.457C226.677 194.526 226.66 196.592 226.635 198.661C226.633 199.82 226.631 200.978 226.629 202.172C226 205 226 205 223.947 206.872C220.312 208.263 217.054 208.416 213.219 208.381C212.443 208.386 211.666 208.39 210.866 208.395C208.267 208.407 205.669 208.398 203.07 208.388C201.206 208.392 199.341 208.398 197.477 208.404C192.415 208.418 187.353 208.412 182.291 208.403C176.995 208.395 171.699 208.402 166.403 208.407C157.509 208.413 148.615 208.405 139.721 208.391C129.436 208.375 119.152 208.38 108.868 208.397C100.04 208.41 91.2115 208.412 82.3834 208.404C77.1099 208.4 71.8365 208.399 66.5631 208.409C61.6054 208.418 56.648 208.412 51.6904 208.394C49.8703 208.39 48.0502 208.391 46.2301 208.398C43.7467 208.406 41.2641 208.396 38.7808 208.381C38.0595 208.388 37.3382 208.394 36.595 208.401C32.2748 208.351 29.2471 207.961 26 205C25.3708 202.172 25.3708 202.172 25.3651 198.661C25.3573 198.015 25.3495 197.37 25.3415 196.705C25.3215 194.537 25.3373 192.371 25.3531 190.203C25.3463 188.651 25.3374 187.099 25.3265 185.546C25.3037 181.327 25.3126 177.109 25.3284 172.89C25.341 168.479 25.3293 164.068 25.3215 159.657C25.3124 152.249 25.3244 144.841 25.3482 137.434C25.3754 128.863 25.3666 120.294 25.339 111.724C25.3164 104.372 25.3131 97.0196 25.3262 89.6674C25.334 85.2737 25.3351 80.8802 25.3186 76.4864C25.3041 72.3559 25.3141 68.2262 25.343 64.0958C25.3497 62.5781 25.3477 61.0603 25.3367 59.5425C25.3231 57.4738 25.3401 55.4075 25.3651 53.3388C25.367 52.1804 25.3689 51.0219 25.3708 49.8283C26 47 26 47 28.0534 45.1276C31.6876 43.7368 34.9465 43.5834 38.7808 43.619ZM39 58C39 102.88 39 147.76 39 194C96.42 194 153.84 194 213 194C213 149.12 213 104.24 213 58C155.58 58 98.16 58 39 58Z" fill="black"/>
<path d="M69.875 225.562C70.856 225.53 71.837 225.497 72.8477 225.463C80.9411 225.403 80.9411 225.403 84.5703 228.277C88.0795 232.21 89.28 234.48 89.125 239.75C89.107 240.549 89.0889 241.348 89.0703 242.172C89.0471 242.775 89.0239 243.378 89 244C90.0106 243.938 91.0213 243.876 92.0625 243.812C97.6473 244.078 101.441 245.4 105.375 249.437C109.545 256.013 109.046 265.945 107.504 273.398C105.963 277.384 103.557 279.744 100 282C96.4536 283.419 92.7747 283.073 89 283C89.0464 283.58 89.0928 284.16 89.1406 284.758C89.4022 290.419 88.8282 293.534 85 298C80.4213 302.099 76.0034 301.48 70.125 301.437C69.144 301.457 68.163 301.477 67.1523 301.498C61.3031 301.494 57.5074 301.123 53 297C50.8327 293.953 50.7781 291.432 50.875 287.75C50.893 286.858 50.9111 285.966 50.9297 285.047C50.9529 284.371 50.9761 283.696 51 283C49.8244 283.062 48.6487 283.124 47.4375 283.187C43.0183 283.164 39.8765 282.236 36 280C31.3739 274.758 31.3887 270.15 31.5 263.5C31.4845 262.576 31.4691 261.651 31.4531 260.699C31.4858 254.992 32.0755 251.447 36 247C41.1968 244.002 45.18 243.694 51 244C50.9536 243.348 50.9072 242.695 50.8594 242.023C50.6161 236.132 50.8742 232.584 55 228C59.6615 225.112 64.5509 225.594 69.875 225.562ZM64 239C63.9742 239.964 63.9484 240.928 63.9219 241.922C63.8652 243.185 63.8084 244.448 63.75 245.75C63.6804 247.629 63.6804 247.629 63.6094 249.547C63 253 63 253 61.4062 255.406C58.1458 257.566 55.6332 257.606 51.75 257.75C50.4867 257.807 49.2234 257.863 47.9219 257.922C46.9577 257.948 45.9934 257.973 45 258C45 261.63 45 265.26 45 269C46.4463 269.039 46.4463 269.039 47.9219 269.078C49.1852 269.135 50.4484 269.192 51.75 269.25C53.6295 269.32 53.6295 269.32 55.5469 269.391C59 270 59 270 61.4062 271.594C63.5658 274.854 63.6062 277.367 63.75 281.25C63.8067 282.513 63.8634 283.777 63.9219 285.078C63.9477 286.042 63.9734 287.007 64 288C67.96 288 71.92 288 76 288C76.0258 286.868 76.0516 285.736 76.0781 284.57C76.1344 283.088 76.1917 281.607 76.25 280.125C76.2713 279.005 76.2713 279.005 76.293 277.863C76.3906 275.695 76.3906 275.695 77 272C79.9511 269.333 83.9076 269.606 87.75 269.375C88.9205 269.3 90.0909 269.225 91.2969 269.148C92.1889 269.099 93.0809 269.05 94 269C94 265.37 94 261.74 94 258C93.108 257.951 92.2159 257.902 91.2969 257.852C90.1264 257.777 88.9559 257.702 87.75 257.625C86.5898 257.555 85.4297 257.486 84.2344 257.414C78.9179 256.733 78.9179 256.733 77 255C76.5341 252.175 76.3038 249.709 76.25 246.875C76.2204 246.121 76.1907 245.367 76.1602 244.59C76.0894 242.727 76.0425 240.864 76 239C72.04 239 68.08 239 64 239Z" fill="black"/>
<path d="M179 263C182 265 182 265 183 268.312C183 272 183 272 180.937 274.812C178 277 178 277 174.75 278.062C173.842 278.372 172.935 278.681 172 279C170.593 281.907 170.959 282.877 172 286C175.287 286.8 176.71 287.097 180 286C180.913 283.747 181.458 281.483 182.059 279.129C183 277 183 277 184.902 275.703C187.912 274.694 189.98 275.146 193 276C195.713 280.07 195.508 283.228 195 288C192.852 294.445 188.105 298.413 182.187 301.438C176.286 302.479 171.049 302.044 165.687 299.312C161.091 295.357 157.436 291.675 156.691 285.398C156.406 278.696 157.005 274.226 161.164 268.848C166.383 263.595 171.765 262.264 179 263Z" fill="black"/>
<path d="M206.5 231.75C207.66 231.711 207.66 231.711 208.844 231.672C211 232 211 232 212.758 233.297C214.821 236.125 214.361 238.632 214 242C212.283 244.93 210.678 245.1 207.375 246.125C206.261 246.414 205.148 246.702 204 247C202.644 248.125 202.644 248.125 202.938 251.062C202.958 252.032 202.979 253.001 203 254C206.868 255.875 206.868 255.875 211 255C211.913 252.747 212.458 250.483 213.059 248.129C214 246 214 246 215.906 244.707C218.955 243.678 220.944 244.09 224 245C225.938 246.5 225.938 246.5 227 249C227.274 255.009 225.908 259.352 222 264C216.386 269.423 211.817 270.481 204.148 270.406C198.317 269.654 194.501 266.664 190.559 262.465C186.931 257.32 187.081 251.017 188 245C190.172 239.298 193.636 235.915 199 233C201.76 232.08 203.634 231.807 206.5 231.75Z" fill="black"/>
<path d="M118 320C120 322 120 322 120.438 325.313C119.874 330.061 118.561 330.871 115 334C112.281 336.055 109.476 337.946 106.625 339.813C105.895 340.315 105.166 340.817 104.414 341.334C99.7988 344.363 96.6957 345.722 91 345C89.0625 343.938 89.0625 343.938 88 342C87.25 338.75 87.25 338.75 88 335C90.6033 332.103 93.762 330.133 97 328C98.1577 327.177 99.3139 326.351 100.469 325.523C101.686 324.68 102.905 323.839 104.125 323C104.698 322.59 105.271 322.179 105.862 321.756C110.228 318.865 112.989 318.628 118 320Z" fill="black"/>
<path d="M162 320C164.4 323.599 164.815 324.763 164 329C158.999 335.06 151.611 338.952 145 343C144.01 343.66 143.02 344.32 142 345C135.98 345.537 135.98 345.537 133.063 343.938C131.222 340.581 131.247 338.767 132 335C134.603 332.103 137.762 330.133 141 328C142.158 327.177 143.314 326.351 144.469 325.523C145.686 324.68 146.905 323.839 148.125 323C148.698 322.59 149.271 322.179 149.862 321.756C154.213 318.875 157.012 318.537 162 320Z" fill="black"/>
</g>
<defs>
<clipPath id="clip0_11_393">
<rect width="251" height="401" fill="white"/>
</clipPath>
</defs>
</svg>
